<svg id="Layer_1" data-name="Layer 1" xmlns="http://www.w3.org/2000/svg" viewBox="0 0 512 44.52"><defs><style>.cls-1{fill:#c3e825;}</style></defs><title>burgurLettus</title><path class="cls-1" d="M1152,562.09c-18.83,0-28.74-3.45-37.49-6.49C1107.06,553,1101.17,551,1088,551s-19.06,2-26.51,4.64c-8.75,3-18.67,6.49-37.49,6.49s-28.73-3.45-37.48-6.49C979.06,553,973.17,551,960,551s-19.06,2-26.51,4.64c-8.75,3-18.66,6.49-37.48,6.49s-28.74-3.45-37.49-6.49C851.06,553,845.18,551,832,551s-19.07,2-26.52,4.64c-8.75,3-18.66,6.49-37.48,6.49s-28.74-3.45-37.49-6.49C723.06,553,717.18,551,704,551V517.57c18.82,0,28.74,3.45,37.48,6.49,7.45,2.59,13.34,4.64,26.52,4.64s19.06-2.05,26.51-4.64c8.75-3,18.67-6.49,37.49-6.49s28.73,3.45,37.48,6.49c7.45,2.59,13.34,4.64,26.52,4.64s19.06-2.05,26.51-4.64c8.75-3,18.66-6.49,37.48-6.49s28.74,3.45,37.49,6.49c7.45,2.59,13.33,4.64,26.51,4.64s19.07-2.05,26.52-4.64c8.75-3,18.66-6.49,37.48-6.49s28.74,3.45,37.49,6.49c7.45,2.59,13.34,4.64,26.52,4.64s19.06-2.05,26.51-4.64c8.75-3,18.67-6.49,37.49-6.49V551c-13.18,0-19.07,2-26.52,4.64C1180.73,558.64,1170.82,562.09,1152,562.09Z" transform="translate(-704 -517.57)"/></svg>